<svg xmlns="http://www.w3.org/2000/svg" xmlns:xlink="http://www.w3.org/1999/xlink" width="362.602" height="468.292" viewBox="0 0 362.602 468.292">
  <defs>
    <linearGradient id="a" x1="7.269" y1="237.321" x2="191.324" y2="53.266" gradientUnits="userSpaceOnUse">
      <stop offset="0" stop-color="#17afca"/>
      <stop offset="0.992" stop-color="#8beb84"/>
    </linearGradient>
  </defs>
  <title>hand-holding-phone</title>
  <g>
    <path d="M37.563,0H161.03a14.181,14.181,0,0,1,14.181,14.181V276.406a14.181,14.181,0,0,1-14.181,14.181H37.563a14.182,14.182,0,0,1-14.182-14.182V14.182A14.182,14.182,0,0,1,37.563,0Z" fill="#262728"/>
    <g>
      <path d="M23.381,92.342H15.427a15.427,15.427,0,1,0,0,30.853h7.954Z" fill="#f9cbbb"/>
      <path d="M23.384,220.2v5.5a14.462,14.462,0,0,1,4.987,11.224c0,7.482-3.447,14.744-9.388,15.625s-11-5.942-11-13.2S11.72,219.975,23.384,220.2Z" fill="#f9cbbb"/>
      <path d="M13.991,232.285c-4.077,1.55-5.12,9.271-5.344,11.587a14.962,14.962,0,0,0,2.571,5.078c-.361-8.555,6.861-15.351,6.861-15.351A3.252,3.252,0,0,0,13.991,232.285Z" fill="#f2dbd6"/>
      <path d="M23.357,173.98v12.984s6.6,12.471,7.7,16.029,1.981,12.8-3.851,17.422-12.434,5.062-16.175-1.54-9.023-21.788-7.262-27.73S13.234,175.08,23.357,173.98Z" fill="#f9cbbb"/>
      <path d="M11.033,218.875a12.942,12.942,0,0,0,.881,1.34c1.477-6.538,7.727-10.508,7.041-12.018-.73-1.606-3.053-10.149-6.556-10.134-1.934.009-5.625,6.784-5.988,10.061A67.782,67.782,0,0,0,11.033,218.875Z" fill="#f2dbd6"/>
      <path d="M23.379,133.927v7.922s5.793,9.463,5.427,16.066-.586,17.165-7.848,19.146S8.193,175.74,6.873,168.038,3.352,145.81,8.634,140.309,23.379,133.927,23.379,133.927Z" fill="#f9cbbb"/>
      <path d="M12.966,151.43c-2.1,0-5.56,4.6-7.4,7.174.326,3.512.861,6.857,1.3,9.434a16.545,16.545,0,0,0,.58,2.331c1.124-1.8,7.457-11.374,8.277-12.428C16.59,156.836,14.01,151.43,12.966,151.43Z" fill="#f2dbd6"/>
    </g>
    <rect x="33.579" y="26.957" width="131.436" height="236.673" fill="url(#a)"/>
    <path d="M88.088,183.835a2.217,2.217,0,0,1-1.932-1.155c-9.345-16.934-12.732-21.114-23.953-32.131a4.261,4.261,0,0,1-1.448-3.241c0-2.245,1.335-4.64,5.071-4.64,4.778,0,12.77,3.883,20.183,7.86,6.4-7.749,36.817-43.776,47.749-43.776a4.811,4.811,0,0,1,2.774.816,3.837,3.837,0,0,1,1.292,2.156c.183,2.014-1.43,3.591-5.34,7.4-8.886,8.672-27.378,26.711-42.332,65.279a2.226,2.226,0,0,1-1.916,1.425Z" fill="#fff" opacity="0.4"/>
    <g>
      <path d="M177.861,163.283s-15.183-18.687-11.679-42.435,13.626-25.3,17.908-21.8,14.794,36.206,17.909,39.32,12.068,21.8,15.183,29.587,18.686,30.756,19.465,39.71,6.229,46.717,7.008,50.221,11.29,16.351,11.29,16.351l-89.288,77.472s-32.566-24.526-38.8-26.862-46.717-19.855-51.778-34.259h87.594s-4.051-29.315,2.336-48.664c5.985-18.13,14.015-33.87,19.076-38.347C184.09,203.576,173.968,175.741,177.861,163.283Z" fill="#f9cbbb"/>
      <path d="M195.408,123.747c-3.28-8.328-6.972-17.906-9.61-22.406a18.309,18.309,0,0,0-1.348,5.41c-.116,2.9,4.691,16.332,5.675,16.911C191.025,124.191,194.125,124.041,195.408,123.747Z" fill="#f2dbd6"/>
      <path d="M165.657,351.708l89.288-77.472s-1.77-2.164-3.91-4.956l-89.883,79.065C163.9,350.388,165.657,351.708,165.657,351.708Z" opacity="0.1"/>
      <rect x="149.049" y="307.311" width="141.51" height="27.252" transform="translate(-157.206 225.138) rotate(-41.336)" fill="#edf6fd"/>
      <rect x="189" y="316.917" width="155.157" height="114.386" transform="translate(-180.672 269.28) rotate(-41.336)" fill="#262728"/>
    </g>
  </g>
</svg>
