<svg xmlns="http://www.w3.org/2000/svg" xmlns:xlink="http://www.w3.org/1999/xlink" width="1600" height="680" viewBox="0 0 1600 680">
  <defs>
    <linearGradient id="a" x1="65.382" y1="157.57" x2="239.976" y2="-17.024" gradientUnits="userSpaceOnUse">
      <stop offset="0" stop-color="#a880f0"/>
      <stop offset="1" stop-color="#62aee7"/>
    </linearGradient>
    <linearGradient id="b" x1="238.505" y1="160.495" x2="289.495" y2="109.505" xlink:href="#a"/>
    <linearGradient id="c" x1="1347.727" y1="-41.459" x2="1266.731" y2="125.032" xlink:href="#a"/>
    <linearGradient id="d" x1="1153.071" y1="391.625" x2="1201.484" y2="254.929" xlink:href="#a"/>
    <linearGradient id="e" x1="1384.542" y1="484.177" x2="1470.122" y2="276.566" xlink:href="#a"/>
  </defs>
  <title>header-bg</title>
  <path d="M133,0H257s-10,32-38,46-38,19-42,44,1,57-36,78c-26.678,15.142-85,9-92-46s54-72,62-77S136,38,133,0Z" fill="url(#a)"/>
  <ellipse cx="264" cy="135" rx="38" ry="34" fill="url(#b)"/>
  <path d="M948,0h652V210c-9,89-165.606,93.411-129-15,26-77-3.841-113.016-94-104-70,7-114.652,57.717-162,90-44,30-157.375,39.925-217,6C940,154,906,92,948,0Z" fill="url(#c)"/>
  <path d="M1258.941,268.624c14,30.119-7.094,69.612-47.11,88.209s-83.8,9.256-97.8-20.864-4.421-68.819,47.11-88.209C1202.44,232.221,1244.943,238.5,1258.941,268.624Z" fill="url(#d)"/>
  <path d="M1373,163c-28-3-61,20-59,73,1.9,50.323,51,66,88,113s31.913,84.563,39,120c8,40,62,82,111,36,41.294-38.766,20-111-35-133-38.741-15.5-89.907-19.738-93-95C1421,204,1413.217,167.309,1373,163Z" fill="url(#e)"/>
</svg>
