<?xml version="1.0" encoding="utf-8"?>
<!-- Generator: Adobe Illustrator 22.0.0, SVG Export Plug-In . SVG Version: 6.00 Build 0)  -->
<svg version="1.1" id="Layer_1" xmlns="http://www.w3.org/2000/svg" xmlns:xlink="http://www.w3.org/1999/xlink" x="0px" y="0px"
	 width="582px" height="498px" viewBox="0 0 582 498" style="enable-background:new 0 0 582 498;" xml:space="preserve">
<style type="text/css">
	.st0{fill:url(#SVGID_1_);}
	.st1{fill:#FFFFFF;}
	.st2{fill:url(#SVGID_2_);}
	.st3{fill:url(#SVGID_3_);}
	.st4{fill:#879CAC;}
	.st5{fill:url(#SVGID_4_);}
	.st6{fill:url(#SVGID_5_);}
	.st7{fill:url(#SVGID_6_);}
	.st8{fill:url(#SVGID_7_);}
	.st9{fill:url(#SVGID_8_);}
	.st10{fill:url(#SVGID_9_);}
</style>
<title>launch</title>
<g>
	<g>
		
			<linearGradient id="SVGID_1_" gradientUnits="userSpaceOnUse" x1="290.994" y1="196.45" x2="290.994" y2="9.94" gradientTransform="matrix(1 0 0 -1 0 500)">
			<stop  offset="0" style="stop-color:#DFEFFB"/>
			<stop  offset="1" style="stop-color:#FFFFFF"/>
		</linearGradient>
		<path class="st0" d="M548.9,458.2c17.3-15.6,18.6-42.3,3-59.6c-10.2-11.3-25.7-16.2-40.6-12.8c-6.1-22.5-29.3-35.7-51.8-29.6
			c-12.7,3.5-23.1,12.7-28,24.9c-23.7-11.5-52.2-2.4-64.9,20.6c-3.9-9.7-14.1-15.4-24.4-13.7c0.1-0.7,0.1-1.5,0.1-2.2
			c0-13.6-11-24.6-24.6-24.6c-2.4,0-4.8,0.4-7.1,1.1c-13.1-54.2-14.5-132.3-14.5-132.3h-34.5c0,0-1.2,64-11.2,116.4
			c-12.6,2.9-21,14.9-19.4,27.7c-11.5,2.2-21.5,9.1-27.8,19c-12.5-21.7-39.4-30.6-62.4-20.7c-12-24.5-41.5-34.7-66.1-22.8
			c-19.5,9.5-30.5,30.6-27.2,52c-23.1-3-44.2,13.3-47.1,36.4C0.1,440,0,441.8,0,443.6c0,10.3,3.7,20.2,10.5,27.9
			C3.8,477.7,0,486.4,0,495.5c0,0.8,0,1.7,0.1,2.5H582C576.8,480.8,564.9,466.4,548.9,458.2z"/>
		<path class="st1" d="M427.6,498c-2.4-15-15.3-26.1-30.5-26.2c-5.6,0-11,1.5-15.8,4.4c-4.7-21.1-23.4-36.2-45-36.2h0
			c4.1-18.1-7.3-36.2-25.4-40.3c-6.1-1.4-12.5-1-18.4,1c-7.9-40.2-8.7-170.6-8.7-170.6h-10.4c0,0-0.6,113.4-7.1,160.9
			c-0.5,0-1,0-1.5,0c-16.5,0-29.9,13.4-29.9,30c0,3,0.5,6,1.4,8.9c-7.3,1.6-13.3,6.9-15.8,14c-19.7,2.1-34.6,18.7-34.6,38.4
			c0,0.9,0,1.8,0.1,2.8c-0.7-0.1-1.4-0.1-2.2-0.1c-8.3,0-18.3,5.4-21.3,13.1L427.6,498z"/>
	</g>
	<g>
		<g>
			
				<linearGradient id="SVGID_2_" gradientUnits="userSpaceOnUse" x1="277.654" y1="175.686" x2="277.654" y2="282.159" gradientTransform="matrix(1 0 0 -1 0 500)">
				<stop  offset="0" style="stop-color:#FFD33F"/>
				<stop  offset="1" style="stop-color:#FE8047"/>
			</linearGradient>
			<path class="st2" d="M277.7,217.8c-8.3,0-29.1,5.2-29.1,41.2s29.1,65.3,29.1,65.3s29.1-29.3,29.1-65.3S285.9,217.8,277.7,217.8z"
				/>
			
				<linearGradient id="SVGID_3_" gradientUnits="userSpaceOnUse" x1="277.654" y1="206.308" x2="277.654" y2="272.962" gradientTransform="matrix(1 0 0 -1 0 500)">
				<stop  offset="0" style="stop-color:#FEE151"/>
				<stop  offset="1" style="stop-color:#FF902E"/>
			</linearGradient>
			<path class="st3" d="M277.7,227c-5.2,0-18.2,3.3-18.2,25.8s18.2,40.9,18.2,40.9s18.2-18.4,18.2-40.9S282.8,227,277.7,227z"/>
		</g>
		<path class="st4" d="M251.6,225.2h52.8c1,0,1.7,0.8,1.7,1.7v1.4c0,1-0.8,1.7-1.7,1.7h-52.8c-1,0-1.7-0.8-1.7-1.7v-1.4
			C249.8,226,250.6,225.2,251.6,225.2z"/>
		
			<linearGradient id="SVGID_4_" gradientUnits="userSpaceOnUse" x1="229.8835" y1="267.592" x2="229.8835" y2="350.717" gradientTransform="matrix(1 0 0 -1 0 500)">
			<stop  offset="8.447510e-03" style="stop-color:#A77DEE"/>
			<stop  offset="1" style="stop-color:#56BDE8"/>
		</linearGradient>
		<path class="st5" d="M215,232.4l34.6-15.7l-3.7-67.4c0,0-35.8,40.4-35.8,63C210.2,212.3,212.5,233.1,215,232.4z"/>
		
			<linearGradient id="SVGID_5_" gradientUnits="userSpaceOnUse" x1="326.752" y1="267.592" x2="326.752" y2="350.717" gradientTransform="matrix(1 0 0 -1 0 500)">
			<stop  offset="8.447510e-03" style="stop-color:#A77DEE"/>
			<stop  offset="1" style="stop-color:#56BDE8"/>
		</linearGradient>
		<path class="st6" d="M341.6,232.4L307,216.7l3.7-67.4c0,0,35.8,40.4,35.8,63C346.5,212.3,344.1,233.1,341.6,232.4z"/>
		
			<linearGradient id="SVGID_6_" gradientUnits="userSpaceOnUse" x1="277.9595" y1="274.816" x2="277.9595" y2="500" gradientTransform="matrix(1 0 0 -1 0 500)">
			<stop  offset="0" style="stop-color:#DCEDFA"/>
			<stop  offset="1" style="stop-color:#EDF8FF"/>
		</linearGradient>
		<path class="st7" d="M328,100.7C322.6,47.7,289.8,0,278,0s-44.6,47.7-50,100.7c-7.9,77,24.4,124.4,24.4,124.4h51.4
			C303.6,225.2,335.9,177.8,328,100.7z"/>
		<path class="st4" d="M262.6,70.5c8.1-8.7,21.8-9.1,30.5-1c0.3,0.3,0.7,0.7,1,1c8.7,9.3,8.7,23.7,0,33c-8.1,8.7-21.8,9.1-30.5,1
			c-0.3-0.3-0.7-0.7-1-1C253.9,94.2,253.9,79.7,262.6,70.5z"/>
		
			<linearGradient id="SVGID_7_" gradientUnits="userSpaceOnUse" x1="266.8885" y1="401.6286" x2="289.7499" y2="424.4899" gradientTransform="matrix(1 0 0 -1 0 500)">
			<stop  offset="1.000000e-03" style="stop-color:#A5DDE5"/>
			<stop  offset="1" style="stop-color:#DEFEFF"/>
		</linearGradient>
		<path class="st8" d="M267.2,75.3c5.8-6.2,15.4-6.5,21.6-0.7c0.2,0.2,0.5,0.5,0.7,0.7c6.2,6.6,6.2,16.8,0,23.4
			c-5.8,6.2-15.4,6.5-21.6,0.7c-0.2-0.2-0.5-0.5-0.7-0.7C261,92.1,261,81.8,267.2,75.3z"/>
		
			<linearGradient id="SVGID_8_" gradientUnits="userSpaceOnUse" x1="278.32" y1="254.719" x2="278.32" y2="337.943" gradientTransform="matrix(1 0 0 -1 0 500)">
			<stop  offset="8.447510e-03" style="stop-color:#A77DEE"/>
			<stop  offset="1" style="stop-color:#56BDE8"/>
		</linearGradient>
		<path class="st9" d="M278.3,162.1c4.9,0,8.9,18.6,8.9,41.6s-4,41.6-8.9,41.6s-8.9-18.6-8.9-41.6S273.4,162.1,278.3,162.1z"/>
		
			<linearGradient id="SVGID_9_" gradientUnits="userSpaceOnUse" x1="277.96" y1="457.166" x2="277.96" y2="500" gradientTransform="matrix(1 0 0 -1 0 500)">
			<stop  offset="8.447510e-03" style="stop-color:#A77DEE"/>
			<stop  offset="1" style="stop-color:#56BDE8"/>
		</linearGradient>
		<path class="st10" d="M244.2,42.8h67.4C299.9,17.4,285.1,0,278,0S256,17.4,244.2,42.8z"/>
	</g>
</g>
</svg>
