<svg xmlns="http://www.w3.org/2000/svg" xmlns:xlink="http://www.w3.org/1999/xlink" width="442.423" height="420.902" viewBox="0 0 442.423 420.902">
  <defs>
    <linearGradient id="a" x1="334.832" y1="175.886" x2="334.832" y2="92.675" gradientUnits="userSpaceOnUse">
      <stop offset="0" stop-color="#fff" stop-opacity="0"/>
      <stop offset="0.126" stop-color="#fff" stop-opacity="0.1"/>
      <stop offset="0.396" stop-color="#fff" stop-opacity="0.356"/>
      <stop offset="0.784" stop-color="#fff" stop-opacity="0.763"/>
      <stop offset="1" stop-color="#fff"/>
    </linearGradient>
    <linearGradient id="b" x1="226.879" y1="426.033" x2="399.568" y2="253.345" gradientUnits="userSpaceOnUse">
      <stop offset="0" stop-color="#17afca"/>
      <stop offset="0.992" stop-color="#8beb84"/>
    </linearGradient>
    <linearGradient id="c" x1="389.271" y1="387.093" x2="389.271" y2="189.463" xlink:href="#a"/>
    <linearGradient id="d" x1="41.433" y1="375.584" x2="217.242" y2="199.775" gradientUnits="userSpaceOnUse">
      <stop offset="0.008" stop-color="#a77dee"/>
      <stop offset="1" stop-color="#56bde8"/>
    </linearGradient>
    <linearGradient id="e" x1="163.206" y1="144.983" x2="163.206" y2="37.175" xlink:href="#a"/>
    <linearGradient id="f" x1="130.777" y1="198.992" x2="258.953" y2="210.611" gradientTransform="translate(-26.621 79.752) rotate(-5.181)" xlink:href="#a"/>
  </defs>
  <title>research-and-development</title>
  <g>
    <g>
      <path d="M437,337.714l-70.768-119.44A124.92,124.92,0,0,1,348.782,154.6V60.852H267.691V154.6a124.911,124.911,0,0,1-17.447,63.673l-70.768,119.44c-15.18,25.621,3.287,58.027,33.067,58.027H403.929C433.71,395.741,452.176,363.335,437,337.714Z" fill="#e4f2fc"/>
      <ellipse cx="310.892" cy="395.741" rx="131.531" ry="8.648" fill="#879cac" opacity="0.1"/>
      <path d="M351.138,76.365h-85.8a12.316,12.316,0,0,1-12.316-12.316h0a12.317,12.317,0,0,1,12.316-12.317h85.8a12.317,12.317,0,0,1,12.317,12.317h0A12.316,12.316,0,0,1,351.138,76.365Z" fill="#e4f2fc"/>
      <circle cx="310.892" cy="161.416" r="15.255" transform="translate(101.543 442.275) rotate(-80.738)" fill="#4ac9ac" opacity="0.3"/>
      <circle cx="285.456" cy="204.398" r="10.471" fill="#4ac9ac" opacity="0.3"/>
      <path d="M302.1,99.991a6.466,6.466,0,1,1-6.466-6.466A6.466,6.466,0,0,1,302.1,99.991Z" fill="#4ac9ac" opacity="0.3"/>
      <rect x="267.691" y="76.365" width="81.091" height="7.547" fill="#879cac" opacity="0.1"/>
      <rect x="329.885" y="92.675" width="9.896" height="83.211" rx="4.347" ry="4.347" opacity="0.8" fill="url(#a)"/>
      <path d="M437,337.714,368.745,222.521c-22.433,3.283-35.959,26.138-60.509,43.68-10.168,7.266-25.849,13.369-42.283,14.119a108.389,108.389,0,0,1-47.233-8.841l-39.244,66.235c-15.18,25.621,3.287,58.027,33.067,58.027H403.929C433.71,395.741,452.176,363.335,437,337.714Z" fill="url(#b)"/>
      <path d="M403.929,383.73H212.543a38.378,38.378,0,0,1-37.988-32.517c-3.62,22.228,13.283,44.528,37.988,44.528H403.929c24.705,0,41.608-22.3,37.988-44.528A38.378,38.378,0,0,1,403.929,383.73Z" opacity="0.1"/>
      <path d="M358.788,222.683a133.6,133.6,0,0,1-14.014-33.22h0c-.05,38.833,67.967,152.659,67.967,152.659a29.787,29.787,0,0,1-25.627,44.971H403.93a29.786,29.786,0,0,0,25.626-44.971Z" opacity="0.3" fill="url(#c)"/>
    </g>
    <g>
      <ellipse cx="133.845" cy="412.556" rx="90.719" ry="8.345" fill="#879cac" opacity="0.1"/>
      <path d="M174.391,151.124V24.633h2.356a12.317,12.317,0,1,0,0-24.633h-85.8a12.317,12.317,0,0,0,0,24.633H93.3V151.124a133.846,133.846,0,1,0,81.091,0Z" fill="#e4f2fc"/>
      <circle cx="122.93" cy="137.095" r="14.886" fill="#67b0e9" opacity="0.3"/>
      <circle cx="151.273" cy="187.419" r="9.896" transform="translate(-57.898 306.822) rotate(-80.811)" fill="#67b0e9" opacity="0.3"/>
      <circle cx="141.377" cy="70.615" r="8.556" transform="translate(40.063 191.898) rotate(-76.668)" fill="#67b0e9" opacity="0.3"/>
      <path d="M234.659,219.471c1.294,4.281-2.178,9.116-7.753,10.8s-11.143-.42-12.436-4.7,2.178-9.115,7.753-10.8S233.366,215.191,234.659,219.471Z" fill="#67b0e9"/>
      <path d="M263.719,246.252c-9.089,11.243-25.376,28.687-46.408,31.156-45.62,5.354-42.8-18.993-41.258-22.544,3.912-8.988,12.287-9.534,18.614-11.429,11.343-3.4,10.327-11.369,9.151-13.7-1.86-3.681-9.811-5.718-14.465-2.285-6.606,4.874-17.836,19.077-21.2,22.636s-15,15.525-32.973,8.612c-6.324-2.432-16.533-12.228-27.137-20.841-27.663-22.468-70.639-22.45-93.145-20.569a133.834,133.834,0,1,0,248.82,28.96Z" fill="url(#d)"/>
      <g opacity="0.1">
        <path d="M133.845,384.245a133.86,133.86,0,0,1-133.1-119.7A135.265,135.265,0,0,0,0,278.711a133.846,133.846,0,0,0,267.691,0,135.265,135.265,0,0,0-.744-14.165A133.86,133.86,0,0,1,133.845,384.245Z"/>
      </g>
      <rect x="93.3" y="24.633" width="81.091" height="7.547" fill="#879cac" opacity="0.1"/>
      <path d="M163.206,144.983h0a4.963,4.963,0,0,1-4.948-4.948V42.123a4.963,4.963,0,0,1,4.948-4.948h0a4.963,4.963,0,0,1,4.948,4.948v97.912A4.963,4.963,0,0,1,163.206,144.983Z" opacity="0.8" fill="url(#e)"/>
      <path d="M136.131,161.85a105.592,105.592,0,0,0-14.544,2.354,104.7,104.7,0,0,1,18.718,206.488,104.7,104.7,0,1,0-4.174-208.842Z" opacity="0.3" fill="url(#f)"/>
    </g>
  </g>
</svg>
